<svg xmlns="http://www.w3.org/2000/svg" width="980" height="360" viewBox="0 0 980 360">
<rect width="980" height="360" fill="white"/>
<text x="35" y="42" font-size="26" font-family="sans-serif">Prinzip: optisch codierte Daten</text>
<g transform="translate(60,80)">
<rect x="0" y="0" width="260" height="170" fill="white" stroke="black" stroke-width="2"/>
<rect x="20" y="20" width="12" height="120" fill="black"/><rect x="40" y="20" width="5" height="120" fill="black"/>
<rect x="55" y="20" width="18" height="120" fill="black"/><rect x="85" y="20" width="7" height="120" fill="black"/>
<rect x="105" y="20" width="13" height="120" fill="black"/><rect x="130" y="20" width="4" height="120" fill="black"/>
<rect x="145" y="20" width="20" height="120" fill="black"/><rect x="180" y="20" width="8" height="120" fill="black"/>
<rect x="205" y="20" width="16" height="120" fill="black"/><rect x="235" y="20" width="6" height="120" fill="black"/>
<text x="75" y="160" font-size="20" font-family="sans-serif">Barcode</text>
</g>
<g transform="translate(610,75)">
<rect x="0" y="0" width="185" height="185" fill="white" stroke="black" stroke-width="2"/>
<rect x="15" y="15" width="50" height="50" fill="none" stroke="black" stroke-width="10"/>
<rect x="120" y="15" width="50" height="50" fill="none" stroke="black" stroke-width="10"/>
<rect x="15" y="120" width="50" height="50" fill="none" stroke="black" stroke-width="10"/>
<g fill="black">
<rect x="82" y="25" width="12" height="12"/><rect x="98" y="42" width="12" height="12"/>
<rect x="80" y="76" width="12" height="12"/><rect x="100" y="78" width="12" height="12"/>
<rect x="122" y="88" width="12" height="12"/><rect x="145" y="84" width="12" height="12"/>
<rect x="78" y="105" width="12" height="12"/><rect x="98" y="120" width="12" height="12"/>
<rect x="123" y="115" width="12" height="12"/><rect x="146" y="135" width="12" height="12"/>
<rect x="85" y="150" width="12" height="12"/><rect x="110" y="155" width="12" height="12"/>
</g>
<text x="55" y="220" font-size="20" font-family="sans-serif">QR-Code</text>
</g>
<line x1="320" y1="165" x2="610" y2="165" stroke="black" stroke-width="2"/>
<text x="385" y="145" font-size="20" font-family="sans-serif">Scanner liest Muster</text>
<text x="330" y="315" font-size="20" font-family="sans-serif">Striche oder Flächen repräsentieren maschinenlesbare Daten.</text>
</svg>